<?xml version="1.0" encoding="UTF-8" standalone="no"?>
<svg width="300px" height="84px" viewBox="0 0 300 84" version="1.1" xmlns="http://www.w3.org/2000/svg" xmlns:xlink="http://www.w3.org/1999/xlink">
    <!-- Generator: Sketch 39.1 (31720) - http://www.bohemiancoding.com/sketch -->
    <title>Slice 1</title>
    <desc>Created with Sketch.</desc>
    <defs>
        <polyline id="path-1" points="0 0.70125 300 0.70125 300 83.67625 0 83.67625"></polyline>
        <polyline id="path-3" points="0 0.70125 300 0.70125 300 83.67625 0 83.67625"></polyline>
        <polyline id="path-5" points="0 0.70125 300 0.70125 300 83.67625 0 83.67625"></polyline>
        <polyline id="path-7" points="0 0.70125 300 0.70125 300 83.67625 0 83.67625"></polyline>
    </defs>
    <g id="Page-1" stroke="none" stroke-width="1" fill="none" fill-rule="evenodd">
        <g id="HaloLogo">
            <g id="Page-1">
                <g id="HALO_logo">
                    <g id="Group-6">
                        <g id="Fill-1-Clipped">
                            <mask id="mask-2" fill="white">
                                <use xlink:href="#path-1"></use>
                            </mask>
                            <g id="path-1"></g>
                            <polyline id="Fill-1" fill="#FFFFFF" mask="url(#mask-2)" points="14.08875 30.1225 14.08875 49.21125 31.1025 49.21125 31.1025 30.1225 45.19125 30.1225 45.19125 83.75 31.1025 83.75 31.1025 63.3 14.08875 63.3 14.08875 83.75 0 83.75 0 30.1225 14.08875 30.1225"></polyline>
                        </g>
                        <g id="Fill-3-Clipped">
                            <mask id="mask-4" fill="white">
                                <use xlink:href="#path-3"></use>
                            </mask>
                            <g id="path-1"></g>
                            <path d="M105.32,64.87125 L116.26,64.87125 L110.82625,53.075 L105.32,64.87125 L105.32,64.87125 L105.32,64.87125 Z M82.51125,83.75 L107.535,30.1225 L113.9025,30.1225 L139.14125,83.75 L125.05375,83.75 L121.7675,76.74 L99.81375,76.74 L96.59375,83.75 L82.51125,83.75 L82.51125,83.75 L82.51125,83.75 Z" id="Fill-3" fill="#FFFFFF" mask="url(#mask-4)"></path>
                        </g>
                        <g id="Fill-4-Clipped">
                            <mask id="mask-6" fill="white">
                                <use xlink:href="#path-5"></use>
                            </mask>
                            <g id="path-1"></g>
                            <polyline id="Fill-4" fill="#FFFFFF" mask="url(#mask-6)" points="176.42375 30.1225 190.5075 30.1225 190.5075 69.59 209.8125 69.59 209.8125 83.75 176.42375 83.75 176.42375 30.1225"></polyline>
                        </g>
                        <g id="Fill-5-Clipped">
                            <mask id="mask-8" fill="white">
                                <use xlink:href="#path-7"></use>
                            </mask>
                            <g id="path-1"></g>
                            <path d="M273.20375,49.515 C269.1375,49.515 265.82375,52.83125 265.82375,56.9325 C265.82375,60.995 269.1375,64.355 273.20375,64.355 C277.305,64.355 280.62125,60.995 280.62125,56.9325 C280.62125,52.83125 277.305,49.515 273.20375,49.515 L273.20375,49.515 L273.20375,49.515 Z M273.1825,30.1225 C287.9875,30.1225 300,42.20625 300,57.005 C300,71.805 287.9875,83.75 273.1825,83.75 C258.385,83.75 246.44375,71.805 246.44375,57.005 C246.44375,42.20625 258.385,30.1225 273.1825,30.1225 L273.1825,30.1225 L273.1825,30.1225 Z" id="Fill-5" fill="#FFFFFF" mask="url(#mask-8)"></path>
                        </g>
                    </g>
                    <path d="M273.20375,0.70125 C269.1375,0.70125 265.82375,4.02 265.82375,8.1225 C265.82375,12.185 269.1375,15.54125 273.20375,15.54125 C277.305,15.54125 280.62125,12.185 280.62125,8.1225 C280.62125,4.02 277.305,0.70125 273.20375,0.70125" id="Fill-7" fill="#FFFFFF"></path>
                </g>
            </g>
        </g>
    </g>
</svg>